<?xml version="1.0" encoding="utf-8"?>
<!-- Generator: Adobe Illustrator 17.1.0, SVG Export Plug-In . SVG Version: 6.00 Build 0)  -->
<!DOCTYPE svg PUBLIC "-//W3C//DTD SVG 1.1//EN" "http://www.w3.org/Graphics/SVG/1.1/DTD/svg11.dtd">
<svg version="1.1" id="Layer_1" xmlns="http://www.w3.org/2000/svg" xmlns:xlink="http://www.w3.org/1999/xlink" x="0px" y="0px"
	 viewBox="0 0 640 240" enable-background="new 0 0 640 240" xml:space="preserve">
<g>
	<path fill="#EB4753" d="M268.5,148.4c2.4,0,4.3,1.9,4.3,4.5V164c0,2.4-1.9,4.5-4.3,4.5h-28.7v30.1c0,2.4-2.1,4.5-4.5,4.5h-11.6
		c-2.4,0-4.3-2.1-4.3-4.5v-30.1h-28.8c-2.6,0-4.5-2.1-4.5-4.5v-11.1c0-2.6,1.9-4.5,4.5-4.5h28.8v-29.9c0-2.6,1.9-4.5,4.3-4.5h11.6
		c2.4,0,4.5,1.9,4.5,4.5v29.9H268.5z"/>
	<path fill="none" d="M60.8,149.6c29.8,0,45.2-14.8,45.2-47.3c0-27.5-13.5-44.4-40.4-44.4c-6.8,0-12.3,0.3-16.5,0.7v90.4
		C52.3,149.4,56.7,149.6,60.8,149.6z"/>
	<g>
		<path opacity="0.7" fill="#66CCCC" d="M408.9,34.4c1.9-0.2,3.3,1.2,3.3,3v124c0,1.7-1.4,3.1-3.3,3.1h-12.6c-1.7,0-3.3-1.4-3.3-3.1
			V38.1c0-1.7,1.6-3.1,3.3-3.3L408.9,34.4z"/>
		<path opacity="0.7" fill="#66CCCC" d="M606.7,77.2H597c-1.7,0-3.5,1.2-3.8,3.1l-2.8,5.5v67.1c0,0,0,0,0-0.1l0.2,8.7
			c0,1.7-0.1,3.3-0.2,4.8v7.2h-1.2c-3.4,12.3-12.4,16.7-23.8,16.7c-7.4,0-15.9-1.6-22-3.8c-1.6-0.5-3.3,0.3-3.5,2.1l-0.7,8.3
			c-0.2,1.7,1.2,3.7,2.8,4.3c7.1,3,17,4.3,25.6,4.3c25.8,0,41.9-14.1,41.9-44.9v-55.7c0-8.5,0.3-17.2,0.5-24.7
			C610,78.6,608.6,77.2,606.7,77.2z"/>
		<path opacity="0.7" fill="#66CCCC" d="M188.3,75.5c-10.9-3.1-18.5,2.6-24.2,14.3v16.2c5.4-10.4,14.2-14.3,24.2-13.2
			c1.7,0.3,3.3-1,3.3-2.8V78.6C191.6,77,189.8,75.9,188.3,75.5z"/>
		<path opacity="0.7" fill="#66CCCC" d="M65,42.3c-5.3,0-10.6,0.1-15.8,0.3v16.1c4.2-0.3,9.7-0.7,16.5-0.7
			c26.8,0,40.4,16.9,40.4,44.4c0,32.5-15.4,47.3-45.2,47.3c-4.2,0-8.5-0.2-11.6-0.5v16c3.2,0.1,6.5,0.1,10,0.1
			c45,0,67.2-23,67.2-63.3C126.5,65.4,106.6,42.3,65,42.3z"/>
		<path opacity="0.7" fill="#66CCCC" d="M350.2,100c12.5-4.7,19.7-15.1,19.7-27.1c0-22.1-17.1-30.6-43.6-30.6
			c-4.6,0-9.2,0.1-13.7,0.3v15.5c4-0.3,9-0.7,15.8-0.7c13.5,0,22,5.4,22,17.7c0,11.7-8.3,18.6-23.2,18.6h-14.5v15h15.9
			c14.6,0,25.1,6.8,25.1,20.5c0,16.3-12.6,20.7-29.3,20.7c-4.5,0-8.7,0-11.8-0.3v15.6c1.9,0,4,0.1,6.1,0.1c35,0,55.4-8,55.4-35
			C374.1,114.1,362.5,103.7,350.2,100z"/>
		<path opacity="0.7" fill="#66CCCC" d="M473.5,75.1C473.5,75.1,473.5,75.1,473.5,75.1l-0.1,14.6c0,0,0.1,0,0.1,0
			c14.9,0,22.7,12,22.7,31.1s-7.8,31-22.7,31c0,0-0.1,0-0.1,0v14.6c0,0,0.1,0,0.1,0c22.7,0,42.3-15,42.3-45.2
			C515.8,89.6,496.2,75.1,473.5,75.1z"/>
	</g>
	<g>
		<path fill="#60BFBF" d="M49.2,58.6V42.5c-5.6,0.2-11.1,0.5-16.1,1c-1.7,0.2-3.1,1.7-3.1,3.7v114.1c0,1.7,1.4,3.1,3.1,3.3
			c4.9,0.2,10.3,0.4,16.1,0.6v-16V58.6z"/>
		<path fill="#60BFBF" d="M312.6,108.7v-15V58.1V42.5c-5.7,0.2-11.2,0.5-15.9,0.9c-1.7,0.2-3.1,1.7-3.1,3.7v114.1
			c0,1.7,1.4,3.1,3.1,3.3c4.5,0.3,9.8,0.5,15.9,0.6v-15.6V108.7z"/>
		<path fill="#60BFBF" d="M450.8,120.9c0-19.1,7.6-31.1,22.6-31.1V75.1c-22.7,0-42.3,14.3-42.3,46.1c0,30.4,19.7,45.2,42.3,45.2
			v-14.6C458.4,151.8,450.8,140,450.8,120.9z"/>
		<path fill="#60BFBF" d="M528.8,122.1c0,25.9,14.2,44.2,35.7,44.2c10.9,0,20.2-5,25.9-13.3V85.8c-6.3-5.5-11.9-10.7-24-10.7
			C546.8,75.1,528.8,91,528.8,122.1z M590.3,102.8v31.1c0,7.3-7.6,17.2-20.1,17.2c-12.8,0-21.8-10.1-21.8-29.7
			c0-21.4,10.2-31,22.5-31C579.3,90.4,586.8,95.5,590.3,102.8z"/>
		<path fill="#60BFBF" d="M161.4,79.7c-0.2-1.7-1.7-3.1-3.5-3L147.6,77c-1.7,0.2-3.3,1.6-3.3,3.3c0.3,7.5,0.5,15.3,0.5,24.7v56.4
			c0,1.7,1.6,3.1,3.3,3.1h12.6c1.9,0,3.3-1.4,3.3-3.1v-55.5V89.7L161.4,79.7z"/>
	</g>
</g>
</svg>
